<svg width="25" height="24" viewBox="0 0 25 24" fill="none" xmlns="http://www.w3.org/2000/svg">
<path fill-rule="evenodd" clip-rule="evenodd" d="M8.22607 12.6665H12.5002C12.7369 12.6665 12.9627 12.7673 13.1202 12.9431C13.2777 13.119 13.3536 13.354 13.3286 13.589L12.9544 17.0473L16.7744 11.3331H12.5002C12.2636 11.3331 12.0377 11.2323 11.8802 11.0565C11.7219 10.8806 11.6461 10.6456 11.6719 10.4106L12.0461 6.95312L8.22607 12.6665ZM11.7597 21.1671C11.6647 21.1671 11.5689 21.1513 11.4747 21.1171C11.1147 20.9854 10.8897 20.6254 10.9314 20.2446L11.5722 14.3338H6.66721C6.35971 14.3338 6.07721 14.1646 5.93221 13.8938C5.78721 13.6221 5.80388 13.2929 5.97471 13.0371L12.5489 3.2046C12.7614 2.8846 13.1647 2.75293 13.5255 2.8846C13.8864 3.01543 14.1114 3.37627 14.0697 3.7571L13.4289 9.6671H18.3339C18.6414 9.6671 18.9239 9.8371 19.0689 10.1079C19.2139 10.3796 19.1972 10.7079 19.0264 10.9638L12.4522 20.7971C12.2947 21.0338 12.0314 21.1671 11.7597 21.1671Z" fill="white"/>
<mask id="mask0_2580_2468" style="mask-type:luminance" maskUnits="userSpaceOnUse" x="5" y="2" width="15" height="20">
<path fill-rule="evenodd" clip-rule="evenodd" d="M8.22607 12.6665H12.5002C12.7369 12.6665 12.9627 12.7673 13.1202 12.9431C13.2777 13.119 13.3536 13.354 13.3286 13.589L12.9544 17.0473L16.7744 11.3331H12.5002C12.2636 11.3331 12.0377 11.2323 11.8802 11.0565C11.7219 10.8806 11.6461 10.6456 11.6719 10.4106L12.0461 6.95312L8.22607 12.6665ZM11.7597 21.1671C11.6647 21.1671 11.5689 21.1513 11.4747 21.1171C11.1147 20.9854 10.8897 20.6254 10.9314 20.2446L11.5722 14.3338H6.66721C6.35971 14.3338 6.07721 14.1646 5.93221 13.8938C5.78721 13.6221 5.80388 13.2929 5.97471 13.0371L12.5489 3.2046C12.7614 2.8846 13.1647 2.75293 13.5255 2.8846C13.8864 3.01543 14.1114 3.37627 14.0697 3.7571L13.4289 9.6671H18.3339C18.6414 9.6671 18.9239 9.8371 19.0689 10.1079C19.2139 10.3796 19.1972 10.7079 19.0264 10.9638L12.4522 20.7971C12.2947 21.0338 12.0314 21.1671 11.7597 21.1671Z" fill="white"/>
</mask>
<g mask="url(#mask0_2580_2468)">
<rect x="2.5" y="2" width="20" height="20" fill="white"/>
</g>
</svg>
